<?xml version="1.0" encoding="UTF-8"?>
<svg xmlns="http://www.w3.org/2000/svg" xmlns:xlink="http://www.w3.org/1999/xlink" width="374pt" height="170pt" viewBox="0 0 374 170" version="1.1">
<defs>
<clipPath id="clip1">
  <path d="M 264 24 L 336 24 L 336 146 L 264 146 Z M 264 24 "/>
</clipPath>
<clipPath id="clip2">
  <path d="M 264.933594 24.296875 L 300.085938 24.296875 L 338.863281 85 L 300.085938 145.703125 L 264.933594 145.703125 L 303.710938 85 Z M 264.933594 24.296875 "/>
</clipPath>
<clipPath id="clip3">
  <path d="M 273 24 L 339 24 L 339 146 L 273 146 Z M 273 24 "/>
</clipPath>
<clipPath id="clip4">
  <path d="M 264.933594 24.296875 L 300.085938 24.296875 L 338.863281 85 L 300.085938 145.703125 L 264.933594 145.703125 L 303.710938 85 Z M 264.933594 24.296875 "/>
</clipPath>
<radialGradient id="radial0" gradientUnits="userSpaceOnUse" cx="-642.31" cy="98.86" fx="-600.262843" fy="98.86" r="64.01" gradientTransform="matrix(0.610513,0,0,-0.856113,702.272609,169.632928)">
<stop offset="0.17" style="stop-color:rgb(96.862745%,74.509804%,8.627451%);stop-opacity:1;"/>
<stop offset="0.51" style="stop-color:rgb(90.980392%,65.098039%,13.72549%);stop-opacity:1;"/>
<stop offset="1" style="stop-color:rgb(79.607843%,49.019608%,16.078431%);stop-opacity:1;"/>
</radialGradient>
</defs>
<g id="surface1">
<path style=" stroke:none;fill-rule:nonzero;fill:rgb(12.156863%,12.156863%,12.156863%);fill-opacity:1;" d="M 374 24.296875 L 338.863281 24.296875 L 303.710938 85 L 338.863281 145.703125 L 373.96875 145.703125 L 338.863281 85.03125 Z M 374 24.296875 "/>
<g clip-path="url(#clip1)" clip-rule="nonzero">
<g clip-path="url(#clip2)" clip-rule="nonzero">
<path style=" stroke:none;fill-rule:nonzero;fill:rgb(79.607843%,49.019608%,16.078431%);fill-opacity:1;" d="M 213.902344 24.308594 L 335.109375 24.308594 L 335.109375 145.710938 L 213.902344 145.710938 Z M 213.902344 24.308594 "/>
</g>
</g>
<g clip-path="url(#clip3)" clip-rule="nonzero">
<g clip-path="url(#clip4)" clip-rule="nonzero">
<path style=" stroke:none;fill-rule:nonzero;fill:url(#radial0);" d="M 273.773438 0.0195312 L 346.496094 0.0195312 L 346.496094 169.980469 L 273.773438 169.980469 Z M 273.773438 0.0195312 "/>
</g>
</g>
<path style=" stroke:none;fill-rule:nonzero;fill:rgb(12.156863%,12.156863%,12.156863%);fill-opacity:1;" d="M 252.792969 145.703125 L 182.867188 145.703125 L 182.867188 24.296875 L 252.804688 24.296875 L 252.804688 45.382812 L 208.613281 45.382812 L 208.613281 72.035156 L 249.730469 72.035156 L 249.730469 93.152344 L 208.613281 93.152344 L 208.613281 124.453125 L 252.792969 124.453125 L 252.792969 145.722656 Z M 252.792969 145.703125 "/>
<path style=" stroke:none;fill-rule:nonzero;fill:rgb(12.156863%,12.156863%,12.156863%);fill-opacity:1;" d="M 95.890625 145.703125 L 95.890625 24.296875 L 121.59375 24.296875 L 121.59375 124.433594 L 170.71875 124.433594 L 170.71875 145.703125 Z M 95.890625 145.703125 "/>
<path style=" stroke:none;fill-rule:nonzero;fill:rgb(12.156863%,12.156863%,12.156863%);fill-opacity:1;" d="M 83.730469 62.160156 C 83.730469 75.226562 79.660156 85.222656 71.523438 92.144531 C 63.382812 99.066406 51.792969 102.527344 36.753906 102.519531 L 25.703125 102.519531 L 25.703125 145.703125 L 0 145.703125 L 0 24.296875 L 38.714844 24.296875 C 53.417969 24.296875 64.59375 27.46875 72.242188 33.804688 C 79.894531 40.144531 83.726562 49.597656 83.730469 62.160156 Z M 25.734375 81.421875 L 34.1875 81.421875 C 42.097656 81.421875 48.011719 79.859375 51.925781 76.734375 C 55.839844 73.609375 57.789062 69.054688 57.773438 63.078125 C 57.773438 57.042969 56.128906 52.585938 52.839844 49.707031 C 49.550781 46.824219 44.410156 45.382812 37.425781 45.382812 L 25.703125 45.382812 L 25.703125 81.433594 Z M 25.734375 81.421875 "/>
</g>
</svg>
